<mxfile host="app.diagrams.net" modified="2021-03-05T08:05:38.487Z" agent="5.0 (Windows NT 10.0; Win64; x64) AppleWebKit/537.36 (KHTML, like Gecko) Chrome/88.0.4324.182 Safari/537.36 Edg/88.0.705.81" etag="dzozNaKVi30G6FBkL9Ic" version="14.4.4" type="github">
  <diagram id="R2lEEEUBdFMjLlhIrx00" name="Page-1">
    <mxGraphModel dx="1422" dy="762" grid="1" gridSize="10" guides="1" tooltips="1" connect="1" arrows="1" fold="1" page="1" pageScale="1" pageWidth="850" pageHeight="1100" math="0" shadow="0" extFonts="Permanent Marker^https://fonts.googleapis.com/css?family=Permanent+Marker">
      <root>
        <mxCell id="0" />
        <mxCell id="1" parent="0" />
        <mxCell id="uSduwXZltjfLBemW7_SH-1" value="&lt;span&gt;KAFKA&lt;/span&gt;" style="shape=process;whiteSpace=wrap;html=1;backgroundOutline=1;direction=west;verticalAlign=middle;fontStyle=1;labelBackgroundColor=none;labelBorderColor=none;fillColor=#f8cecc;strokeColor=#b85450;fontColor=#FF3333;rotation=90;flipV=1;flipH=0;" vertex="1" parent="1">
          <mxGeometry x="275" y="315" width="320" height="90" as="geometry" />
        </mxCell>
      </root>
    </mxGraphModel>
  </diagram>
</mxfile>
